<svg width="194" height="223" viewBox="0 0 194 223" fill="none" xmlns="http://www.w3.org/2000/svg">
<circle cx="97" cy="125" r="97" fill="#D9D9D9"/>
<path opacity="0.7" d="M154.672 57.9144V158.96C154.672 166.491 153.243 173.641 150.573 180.218C142.089 201.381 121.404 216.347 97.1907 216.347C72.9778 216.347 52.292 201.381 43.808 180.218C41.2342 173.641 39.8043 166.491 39.8043 158.96V57.9144C39.8043 26.1707 65.5424 0.432617 97.286 0.432617C113.206 0.432617 127.504 6.81948 137.895 17.3054C148.286 27.6959 154.672 42.0902 154.672 57.9144Z" fill="#CECAB7"/>
<path d="M154.673 63.6322V164.678C154.673 172.209 153.243 179.358 150.574 185.936C142.089 207.098 121.404 222.065 97.1908 222.065C72.9779 222.065 52.2921 207.098 43.808 185.936C41.2342 179.358 39.8043 172.114 39.8043 164.678V63.6322C39.8043 31.8885 65.5424 6.15039 97.2861 6.15039C113.11 6.15039 127.505 12.5373 137.895 23.0232C148.286 33.4137 154.673 47.7127 154.673 63.6322Z" fill="#F7F6FB"/>
<path d="M97.2861 217.393C75.5517 217.393 56.3911 204.333 48.3837 184.219C45.9052 178.023 44.5706 171.446 44.5706 164.677V63.6315C44.5706 34.5569 68.2115 10.916 97.2861 10.916C111.394 10.916 124.645 16.4449 134.559 26.3589C144.568 36.2728 150.002 49.5232 150.002 63.6315V164.677C150.002 171.446 148.762 178.023 146.284 184.219C138.181 204.333 118.925 217.393 97.2861 217.393Z" fill="url(#paint0_linear_645_12)"/>
<path d="M150.573 185.936C143.901 202.618 129.602 215.487 112.062 220.158L126.265 197.089L117.877 191.751H131.794L140.088 168.968C144.568 173.925 148.095 179.644 150.573 185.936Z" fill="#BC723B"/>
<path d="M82.4152 220.158C64.7798 215.487 50.4808 202.618 43.9033 185.936C46.3818 179.644 50.0042 173.925 54.3892 168.968L62.6826 191.751H76.5049L68.2115 197.089L82.4152 220.158Z" fill="#BC723B"/>
<path d="M131.794 191.751H117.877L126.265 197.089L112.062 220.158C110.06 220.73 108.058 221.112 106.056 221.398C103.196 221.874 100.337 222.065 97.2861 222.065C94.1403 222.065 91.1852 221.779 88.1348 221.302C86.2282 221.016 84.3217 220.635 82.5105 220.158L68.3069 197.089L76.6003 191.751H62.7779L54.4846 168.968C60.1088 162.677 66.9723 157.72 74.7891 154.383C77.2675 153.335 79.8414 152.381 82.5105 151.714C87.2768 150.475 92.2338 149.808 97.2861 149.808C102.434 149.808 107.391 150.475 112.062 151.714C114.731 152.381 117.305 153.335 119.783 154.383C126.647 157.243 132.747 161.437 137.895 166.585C138.658 167.348 139.42 168.11 140.088 168.968L131.794 191.751Z" fill="#E0DFD8"/>
<path d="M105.961 221.395C103.101 221.872 100.241 222.063 97.1908 222.063C94.045 222.063 91.0899 221.777 88.0394 221.3L93.473 180.596H100.432L105.961 221.395Z" fill="#3E4140"/>
<path d="M101.48 180.119H92.901C92.1384 180.119 91.5665 179.643 91.4712 178.88L90.1366 170.872C90.0413 170.015 90.7085 169.252 91.5665 169.252H102.72C103.578 169.252 104.34 170.015 104.15 170.872L102.815 178.88C102.815 179.643 102.243 180.119 101.48 180.119Z" fill="#3E4140"/>
<path d="M100.432 179.166H93.759C93.187 179.166 92.7104 179.643 92.7104 180.31V181.073C92.7104 181.645 93.187 182.216 93.759 182.216H100.432C101.004 182.216 101.48 181.74 101.48 181.073V180.31C101.48 179.643 101.004 179.166 100.432 179.166Z" fill="#313332"/>
<path d="M82.5105 220.158L68.3069 197.089L76.6003 191.751H62.778L54.4846 168.968L51.6248 167.919C51.6248 167.919 57.3444 163.82 61.1574 159.244L72.6919 145.136L82.4152 142.753V151.809L82.5105 220.158Z" fill="#D7A174"/>
<path d="M61.1574 159.149L54.3892 168.968L54.0079 167.919L61.1574 159.149Z" fill="#D7A174"/>
<path opacity="0.4" d="M73.7405 155.527L72.5013 149.426L73.7405 146.852L80.9853 144.469L82.5105 145.136L73.7405 155.527Z" fill="#1F1E21"/>
<path d="M142.947 167.92L140.088 168.968L131.794 191.751H117.877L126.265 197.09L112.062 220.159L112.157 151.714V142.658L121.88 145.041L133.51 159.15C133.51 159.245 133.605 159.245 133.605 159.245C137.228 163.916 142.947 167.92 142.947 167.92Z" fill="#D7A174"/>
<path opacity="0.4" d="M120.736 155.527L121.976 149.426L120.736 146.852L113.587 144.469L112.062 145.136L120.736 155.527Z" fill="#1F1E21"/>
<path d="M97.2861 169.541C83.1778 172.401 82.5105 184.984 82.5105 184.984C82.5105 184.984 75.4564 162.773 73.8358 156.291C73.6452 155.528 73.8358 154.67 74.4078 154.003L82.5105 145.138V151.811C82.5105 151.715 87.4675 169.541 97.2861 169.541Z" fill="#F1F2F2"/>
<path d="M97.2861 169.541C111.394 172.401 112.062 184.984 112.062 184.984C112.062 184.984 119.116 162.773 120.736 156.291C120.927 155.528 120.736 154.67 120.164 154.003L112.062 145.138V151.811C112.062 151.715 107.105 169.541 97.2861 169.541Z" fill="#F1F2F2"/>
<path d="M97.2861 169.539C89.088 169.539 82.5105 162.962 82.5105 154.764V140.655C82.5105 132.457 89.088 125.88 97.2861 125.88C105.484 125.88 112.062 132.457 112.062 140.655V154.764C112.062 162.866 105.389 169.539 97.2861 169.539Z" fill="url(#paint1_radial_645_12)"/>
<path d="M111.585 39.2285H82.9871C67.0677 39.2285 54.1033 52.1929 54.1033 68.1124V104.432C54.1033 128.263 73.4545 147.615 97.2861 147.615C121.118 147.615 140.469 128.263 140.469 104.432V68.2077C140.469 52.1929 127.505 39.2285 111.585 39.2285Z" fill="url(#paint2_radial_645_12)"/>
<g opacity="0.3">
<path d="M97.8581 127.117C93.1871 127.117 88.6115 125.02 85.0844 121.302C84.7031 120.921 84.7984 120.349 85.0844 120.063C85.4657 119.682 86.0376 119.777 86.3236 120.063C89.5647 123.399 93.5684 125.306 97.7628 125.306C101.862 125.306 105.961 123.495 109.107 120.254C109.488 119.872 110.06 119.872 110.346 120.254C110.727 120.635 110.727 121.207 110.346 121.493C107.009 125.115 102.529 127.117 97.8581 127.117Z" fill="white"/>
</g>
<g opacity="0.3">
<path d="M80.4133 94.326C84.5198 94.326 87.8488 90.997 87.8488 86.8905C87.8488 82.784 84.5198 79.4551 80.4133 79.4551C76.3068 79.4551 72.9778 82.784 72.9778 86.8905C72.9778 90.997 76.3068 94.326 80.4133 94.326Z" fill="white"/>
<path d="M116.637 94.326C120.744 94.326 124.073 90.997 124.073 86.8905C124.073 82.784 120.744 79.4551 116.637 79.4551C112.531 79.4551 109.202 82.784 109.202 86.8905C109.202 90.997 112.531 94.326 116.637 94.326Z" fill="white"/>
</g>
<path d="M54.0079 78.2178V106.625C46.1912 106.625 39.8043 100.238 39.8043 92.4214C39.8043 84.5093 46.1912 78.2178 54.0079 78.2178Z" fill="url(#paint3_radial_645_12)"/>
<path d="M140.469 78.2178V106.625C148.381 106.625 154.673 100.238 154.673 92.4214C154.673 84.5093 148.381 78.2178 140.469 78.2178Z" fill="url(#paint4_radial_645_12)"/>
<path d="M79.1741 92.992C83.2806 92.992 86.6096 89.663 86.6096 85.5566C86.6096 81.4501 83.2806 78.1211 79.1741 78.1211C75.0676 78.1211 71.7386 81.4501 71.7386 85.5566C71.7386 89.663 75.0676 92.992 79.1741 92.992Z" fill="#453632"/>
<path d="M115.398 92.992C119.505 92.992 122.834 89.663 122.834 85.5566C122.834 81.4501 119.505 78.1211 115.398 78.1211C111.292 78.1211 107.963 81.4501 107.963 85.5566C107.963 89.663 111.292 92.992 115.398 92.992Z" fill="#453632"/>
<path d="M145.903 83.0795C145.998 80.1244 145.712 77.1693 145.998 74.3095C146.379 71.0684 147.332 67.8273 148.667 64.9675C151.527 58.5806 150.002 50.0013 147.523 43.7097C145.045 37.2275 140.85 31.4126 135.417 27.1229C133.51 25.693 131.413 24.4538 129.125 23.8818C127.981 23.5959 124.835 22.6426 123.691 23.3099C126.265 21.7847 128.076 18.9249 128.458 15.9698C128.362 17.0184 119.878 15.5885 119.021 15.3978C115.875 14.6352 112.824 13.5866 109.679 12.6333C105.579 11.2988 101.766 9.5829 97.2861 9.01094C88.9927 8.05768 80.1274 10.3455 73.1685 15.0165C70.1181 17.0184 67.449 19.6875 65.5424 22.9286C64.6845 24.4538 63.6359 26.265 63.5406 28.0762C63.4452 28.5528 63.2546 32.0799 64.0172 32.0799C59.5369 32.1752 55.3425 33.2238 51.8154 36.0836C48.479 38.8481 46.1912 42.9471 45.6192 47.3321C44.8566 52.9564 46.8585 58.39 48.0024 63.7283C49.1463 68.6852 48.9556 73.8328 48.765 78.8851C48.765 79.2664 53.6266 78.1225 54.0079 78.1225V68.2086C54.0079 52.2891 66.9723 39.3247 82.8918 39.3247H111.585C120.355 39.3247 128.839 43.4237 134.273 50.2872C137.8 54.7676 139.706 60.2965 140.278 65.9208C140.564 68.4946 140.374 71.0684 140.278 73.6422C140.183 74.7861 140.088 75.93 139.992 77.0739C139.897 78.1225 140.374 79.2664 140.564 80.4104C140.755 82.3169 140.85 84.2234 140.946 86.1299C141.041 87.6552 142.28 88.2271 143.424 89.0851C143.805 89.371 145.807 90.6103 145.807 91.0869C145.712 88.4178 145.807 85.7486 145.903 83.0795Z" fill="#202322"/>
<path d="M50.5762 98.9988H54.0079V76.2158H48.8603V97.1876C48.8603 98.2362 49.6229 98.9988 50.5762 98.9988Z" fill="#3E4140"/>
<path d="M143.901 98.9988H140.469V76.2158H145.712V97.1876C145.712 98.2362 144.854 98.9988 143.901 98.9988Z" fill="#3E4140"/>
<path d="M53.15 87.3693C53.436 87.9412 53.722 88.4179 54.0079 88.8945C53.722 88.5132 54.6752 86.416 54.7705 85.9394C55.0565 84.9861 55.3425 84.0328 55.6285 82.9843C56.2958 80.4104 57.1537 77.4553 59.3462 75.8348C60.9668 74.5955 62.5873 73.4516 64.2079 72.2124C65.6378 71.0685 67.2583 69.9245 68.0209 68.1133C68.8788 66.1115 68.9742 63.8237 69.3555 61.7265C69.3555 62.0125 71.9293 63.7283 72.2153 64.0143C73.2639 64.8723 77.0769 54.863 78.2208 55.6256C80.5087 56.9602 82.9871 58.1041 85.4656 59.0573C90.9946 61.0592 97.4767 62.2031 103.387 61.0592C106.723 60.3919 109.869 58.962 112.824 57.3415C116.923 55.0536 117.495 63.0611 122.357 62.6797C126.361 62.3938 132.747 63.5377 134.082 68.018C135.321 72.1171 133.415 77.074 136.084 80.7918C136.656 81.5544 137.323 82.1263 137.895 82.8889C139.992 85.2721 140.755 88.5132 140.946 91.5636C140.85 90.1337 142.566 88.0365 143.043 86.702C143.71 84.6048 144.091 82.2216 144.377 80.1245C145.14 75.3581 145.331 70.4965 145.045 65.6349C144.854 62.9657 144.187 60.8685 143.329 58.4854C142.566 56.3882 142.661 54.0051 141.899 51.8125C140.564 47.8088 138.086 44.1864 134.94 41.422C125.312 32.8426 110.918 31.3174 98.5253 31.3174C50.5762 31.3174 50.1949 62.2031 50.1949 62.2031C50.7668 65.8255 51.2435 69.3526 51.8154 72.975C51.8154 74.4049 52.3874 75.9301 52.578 77.36C52.7687 78.8852 52.7687 80.4104 52.578 81.9357C52.4827 82.9843 52.1014 84.0328 52.3874 84.9861C52.3874 85.6534 52.7687 86.5113 53.15 87.3693Z" fill="#202322"/>
<path d="M97.3815 125.881C92.7105 125.881 88.1348 123.784 84.6077 120.066C84.2264 119.685 84.3217 119.113 84.6077 118.827C84.989 118.445 85.561 118.541 85.847 118.827C89.0881 122.163 93.0918 124.07 97.2861 124.07C101.385 124.07 105.484 122.258 108.63 119.017C109.011 118.636 109.583 118.636 109.869 119.017C110.251 119.399 110.251 119.971 109.869 120.257C106.533 123.879 102.052 125.881 97.3815 125.881Z" fill="#453632"/>
<path d="M120.26 81.5541C119.116 80.1242 117.305 79.1709 115.303 79.1709C113.873 79.1709 112.443 79.7429 111.394 80.6008C111.013 80.8868 110.632 81.1728 110.441 81.5541C109.583 82.6026 109.011 83.9372 109.011 85.4624C109.011 87.4643 109.964 89.2755 111.49 90.4194C110.632 89.3708 110.155 88.0363 110.155 86.511C110.155 85.8437 110.25 85.1765 110.441 84.6045C111.013 85.4624 111.871 86.0344 112.92 86.0344C114.54 86.0344 115.875 84.6998 115.875 83.0793C115.875 82.0307 115.303 81.1728 114.445 80.6008C115.017 80.4101 115.684 80.3148 116.351 80.3148C117.781 80.3148 119.211 80.7914 120.26 81.5541Z" fill="white"/>
<path d="M84.0357 81.5531C82.8918 80.1232 81.0806 79.1699 79.0788 79.1699C77.6489 79.1699 76.219 79.7419 75.1704 80.5998C74.7891 80.8858 74.4078 81.1718 74.2171 81.5531C73.3592 82.6017 72.7872 83.9362 72.7872 85.4615C72.7872 87.4633 73.7405 89.2745 75.2657 90.4184C74.4078 89.3698 73.9311 88.0353 73.9311 86.5101C73.9311 85.8428 74.0265 85.1755 74.2171 84.6035C74.7891 85.4615 75.647 86.0334 76.6956 86.0334C78.3162 86.0334 79.6507 84.6988 79.6507 83.0783C79.6507 82.0297 79.0788 81.1718 78.2208 80.5998C78.7928 80.4092 79.4601 80.3138 80.1274 80.3138C81.5573 80.3138 82.9872 80.7905 84.0357 81.5531Z" fill="white"/>
<path opacity="0.5" d="M150.574 185.936C142.089 207.099 121.404 222.065 97.1908 222.065C72.9779 222.065 52.2921 207.099 43.808 185.936C49.4323 171.733 60.5855 160.389 74.5984 154.383C81.5573 151.428 89.0881 149.808 97.0955 149.808C105.103 149.808 112.729 151.428 119.592 154.383C126.456 157.243 132.557 161.437 137.704 166.585C143.329 172.114 147.714 178.596 150.574 185.936Z" fill="url(#paint5_radial_645_12)"/>
<path opacity="0.25" d="M115.398 99.8585C123.032 99.8585 129.22 93.67 129.22 86.0362C129.22 78.4023 123.032 72.2139 115.398 72.2139C107.764 72.2139 101.576 78.4023 101.576 86.0362C101.576 93.67 107.764 99.8585 115.398 99.8585Z" fill="#F1F2F2"/>
<path opacity="0.25" d="M79.174 99.8585C86.8079 99.8585 92.9963 93.67 92.9963 86.0362C92.9963 78.4023 86.8079 72.2139 79.174 72.2139C71.5401 72.2139 65.3517 78.4023 65.3517 86.0362C65.3517 93.67 71.5401 99.8585 79.174 99.8585Z" fill="#F1F2F2"/>
<path opacity="0.25" d="M115.398 72.2139C107.772 72.2139 101.576 78.4101 101.576 86.0362C101.576 87.7521 101.862 89.3726 102.434 90.8025C107.867 84.7969 112.824 78.5054 118.258 72.4998C117.4 72.4045 116.351 72.2139 115.398 72.2139Z" fill="#F1F2F2"/>
<path opacity="0.25" d="M79.174 99.954C86.8001 99.954 92.9963 93.7578 92.9963 86.1317C92.9963 80.6981 89.7552 75.9318 85.1796 73.7393C78.888 79.9355 72.7872 86.227 67.1629 92.9952C69.5461 97.1895 74.0264 99.954 79.174 99.954Z" fill="#F1F2F2"/>
<path d="M127.79 130.458C126.742 131.507 125.598 132.46 124.454 133.413C123.596 133.413 122.738 133.413 121.976 133.223C120.641 132.937 119.402 132.174 118.83 130.935C118.353 130.077 118.353 129.028 118.353 128.075C118.258 125.025 118.448 121.879 118.448 118.828C118.448 116.255 118.162 113.585 116.256 111.774C114.063 109.772 110.632 109.486 107.486 109.391C106.056 109.391 104.721 109.391 103.292 109.582C102.148 109.677 101.099 110.154 99.9551 110.44C100.146 110.058 100.432 109.582 100.718 109.296C100.622 109.296 100.622 109.296 100.527 109.391C100.146 109.486 99.7645 109.677 99.3832 109.963C99.0019 110.154 98.7159 110.44 98.3346 110.726C97.858 111.107 97.4767 111.774 97.3813 112.441C97.286 111.584 96.9047 110.63 96.1421 110.154C95.4748 109.677 94.8075 109.296 94.0449 109.01C93.2823 108.724 92.5197 108.533 91.6617 108.533C92.1384 108.914 93.187 109.582 93.2823 110.154C92.2337 109.963 91.1851 109.677 90.0412 109.582C88.9926 109.486 87.944 109.486 86.8954 109.486C83.7497 109.486 80.3179 109.772 78.1254 111.87C76.2189 113.681 75.9329 116.445 75.9329 118.924C75.9329 121.974 76.0282 125.12 76.0282 128.17C76.0282 129.124 75.9329 130.172 75.5516 131.03C74.9796 132.269 73.6451 133.032 72.4058 133.318C71.5479 133.509 70.7853 133.509 69.9273 133.509C60.2041 125.597 54.0078 113.49 54.0078 99.9537V104.911C54.0078 128.838 73.3591 148.094 97.1907 148.094C109.106 148.094 119.878 143.232 127.79 135.415C135.607 127.598 140.469 116.826 140.469 104.815V99.8584C140.469 111.774 135.607 122.641 127.79 130.458ZM81.2712 120.354C81.5572 118.733 81.6525 116.922 82.7011 115.587C83.559 114.443 85.3702 114.443 86.6094 114.539C88.516 114.729 90.2318 115.492 92.1384 115.492C93.7589 115.492 96.714 115.111 97.286 113.204C97.3813 112.918 97.3813 112.632 97.3813 112.346C97.3813 112.918 97.4767 113.585 97.858 114.062C98.8112 115.301 100.908 115.492 102.338 115.587C104.149 115.683 105.675 115.206 107.391 114.825C108.82 114.443 110.441 114.348 111.585 115.301C112.824 116.35 113.015 118.733 113.301 120.258C113.873 123.881 113.873 127.694 113.11 131.316C112.538 134.176 111.776 137.322 109.202 139.133C109.011 139.228 108.82 139.324 108.535 139.419C106.247 137.322 102.052 134.271 97.0953 134.271C92.2337 134.271 87.944 137.417 85.7515 139.419C85.5609 139.324 85.3702 139.228 85.1796 139.133C82.6057 137.322 81.8431 134.271 81.2712 131.316C80.6992 127.789 80.6039 124.071 81.2712 120.354Z" fill="#202322"/>
<path d="M115.398 99.8585C123.032 99.8585 129.22 93.67 129.22 86.0362C129.22 78.4023 123.032 72.2139 115.398 72.2139C107.764 72.2139 101.576 78.4023 101.576 86.0362C101.576 93.67 107.764 99.8585 115.398 99.8585Z" stroke="black" stroke-miterlimit="10"/>
<path d="M79.174 99.8585C86.8079 99.8585 92.9963 93.67 92.9963 86.0362C92.9963 78.4023 86.8079 72.2139 79.174 72.2139C71.5401 72.2139 65.3517 78.4023 65.3517 86.0362C65.3517 93.67 71.5401 99.8585 79.174 99.8585Z" stroke="black" stroke-miterlimit="10"/>
<path d="M92.5197 82.5096C92.5197 78.5059 101.957 78.5059 101.957 82.5096" stroke="black" stroke-miterlimit="10"/>
<path d="M129.125 82.5094L145.712 79.459" stroke="black" stroke-miterlimit="10"/>
<path d="M65.3517 82.5094L48.8603 79.459" stroke="black" stroke-miterlimit="10"/>
<defs>
<linearGradient id="paint0_linear_645_12" x1="97.2569" y1="216.743" x2="97.2569" y2="11.4946" gradientUnits="userSpaceOnUse">
<stop stop-color="#ABE4DC"/>
<stop offset="1" stop-color="#ABE4DC" stop-opacity="0"/>
</linearGradient>
<radialGradient id="paint1_radial_645_12" cx="0" cy="0" r="1" gradientUnits="userSpaceOnUse" gradientTransform="translate(83.9892 176.572) rotate(-62.2724) scale(39.1517 30.4883)">
<stop offset="0.6192" stop-color="#F2AD8B"/>
<stop offset="1" stop-color="#DB8B6F"/>
</radialGradient>
<radialGradient id="paint2_radial_645_12" cx="0" cy="0" r="1" gradientUnits="userSpaceOnUse" gradientTransform="translate(54.4276 67.5178) scale(99.3181 99.3181)">
<stop offset="0.6384" stop-color="#F7CBB5"/>
<stop offset="1" stop-color="#DB8B6F"/>
</radialGradient>
<radialGradient id="paint3_radial_645_12" cx="0" cy="0" r="1" gradientUnits="userSpaceOnUse" gradientTransform="translate(39.8689 85.5918) scale(21.4071 21.4071)">
<stop offset="0.6192" stop-color="#F7CBB5"/>
<stop offset="1" stop-color="#DB8B6F"/>
</radialGradient>
<radialGradient id="paint4_radial_645_12" cx="0" cy="0" r="1" gradientUnits="userSpaceOnUse" gradientTransform="translate(154.645 85.5918) rotate(180) scale(21.4071)">
<stop offset="0.6192" stop-color="#F7CBB5"/>
<stop offset="1" stop-color="#DB8B6F"/>
</radialGradient>
<radialGradient id="paint5_radial_645_12" cx="0" cy="0" r="1" gradientUnits="userSpaceOnUse" gradientTransform="translate(87.2512 153.979) scale(71.3166 71.3166)">
<stop offset="0.6777" stop-color="#1F1E21" stop-opacity="0"/>
<stop offset="1" stop-color="#1F1E21"/>
</radialGradient>
</defs>
</svg>
