<svg width="80" height="80" viewBox="0 0 80 80" fill="none" xmlns="http://www.w3.org/2000/svg">
<circle cx="40" cy="40" r="40" fill="#E94560"/>
<path d="M24 50.8V26C24 23.7909 25.7909 22 28 22H31.7419M24 50.8V54C24 56.2091 25.7909 58 28 58H52.9032M24 50.8H31.7419M56 58H52.9032M31.7419 22H52C54.2091 22 56 23.7909 56 26V47.7032C56 49.4135 54.6135 50.8 52.9032 50.8V50.8M31.7419 22V50.8M31.7419 50.8H52.9032M52.9032 50.8V58M49.8065 32.2857H37.4194M49.8065 39.4857H37.4194" stroke="#D9D9D9" stroke-width="2" stroke-linecap="round" stroke-linejoin="round"/>
</svg>
