<svg width="80" height="80" viewBox="0 0 80 80" fill="none" xmlns="http://www.w3.org/2000/svg">
<circle cx="40" cy="40" r="40" fill="#E94560"/>
<path fill-rule="evenodd" clip-rule="evenodd" d="M51.75 22H28C24.134 22 21 25.134 21 29V50.5C21 54.366 24.134 57.5 28 57.5H51.75C55.616 57.5 58.75 54.366 58.75 50.5V29C58.75 25.134 55.616 22 51.75 22ZM23 29C23 26.2386 25.2386 24 28 24H51.75C54.5114 24 56.75 26.2386 56.75 29V50.5C56.75 53.2614 54.5114 55.5 51.75 55.5H28C25.2386 55.5 23 53.2614 23 50.5V29ZM30.4571 31.1679C30.0666 30.7774 29.4334 30.7774 29.0429 31.1679C28.6524 31.5584 28.6524 32.1916 29.0429 32.5821L36.2108 39.75L29.0429 46.9179C28.6524 47.3084 28.6524 47.9416 29.0429 48.3321C29.4334 48.7226 30.0666 48.7226 30.4571 48.3321L38.3321 40.4571C38.7226 40.0666 38.7226 39.4334 38.3321 39.0429L30.4571 31.1679ZM38.75 46.625C38.1977 46.625 37.75 47.0727 37.75 47.625C37.75 48.1773 38.1977 48.625 38.75 48.625H51.125C51.6773 48.625 52.125 48.1773 52.125 47.625C52.125 47.0727 51.6773 46.625 51.125 46.625H38.75Z" fill="#D0D4DC"/>
</svg>
