<svg width="124" height="50" viewBox="0 0 124 50" fill="none" xmlns="http://www.w3.org/2000/svg">
<circle cx="99" cy="25" r="24" stroke="#16213E" stroke-width="2"/>
<path d="M87 19C87 18.2044 87.3161 17.4413 87.8787 16.8787C88.4413 16.3161 89.2044 16 90 16H108C108.796 16 109.559 16.3161 110.121 16.8787C110.684 17.4413 111 18.2044 111 19V31C111 31.7956 110.684 32.5587 110.121 33.1213C109.559 33.6839 108.796 34 108 34H90C89.2044 34 88.4413 33.6839 87.8787 33.1213C87.3161 32.5587 87 31.7956 87 31V19ZM90 17.5C89.6022 17.5 89.2206 17.658 88.9393 17.9393C88.658 18.2206 88.5 18.6022 88.5 19V19.3255L99 25.6255L109.5 19.3255V19C109.5 18.6022 109.342 18.2206 109.061 17.9393C108.779 17.658 108.398 17.5 108 17.5H90ZM109.5 21.0745L102.438 25.312L109.5 29.6575V21.0745ZM109.449 31.3885L100.989 26.182L99 27.3745L97.011 26.182L88.551 31.387C88.6362 31.7062 88.8245 31.9883 89.0865 32.1896C89.3485 32.3908 89.6696 32.5 90 32.5H108C108.33 32.5 108.651 32.3911 108.913 32.1902C109.175 31.9892 109.363 31.7074 109.449 31.3885ZM88.5 29.6575L95.562 25.312L88.5 21.0745V29.6575Z" fill="#16213E"/>
<circle cx="25" cy="25" r="24" stroke="#16213E" stroke-width="2"/>
<path d="M15 16.4325C15 15.6413 15.6575 15 16.4688 15H33.5312C34.3425 15 35 15.6413 35 16.4325V33.5675C35 34.3588 34.3425 35 33.5312 35H16.4688C15.6575 35 15 34.3588 15 33.5675V16.4325ZM21.1788 31.7425V22.7113H18.1775V31.7425H21.1788ZM19.6788 21.4775C20.725 21.4775 21.3762 20.785 21.3762 19.9175C21.3575 19.0312 20.7263 18.3575 19.6988 18.3575C18.6712 18.3575 18 19.0325 18 19.9175C18 20.785 18.6513 21.4775 19.6588 21.4775H19.6788ZM25.8138 31.7425V26.6988C25.8138 26.4288 25.8337 26.1587 25.9137 25.9662C26.13 25.4275 26.6238 24.8687 27.4538 24.8687C28.54 24.8687 28.9738 25.6962 28.9738 26.9113V31.7425H31.975V26.5625C31.975 23.7875 30.495 22.4975 28.52 22.4975C26.9275 22.4975 26.2137 23.3725 25.8138 23.9888V24.02H25.7938C25.8004 24.0096 25.8071 23.9991 25.8138 23.9888V22.7113H22.8137C22.8512 23.5588 22.8137 31.7425 22.8137 31.7425H25.8138Z" fill="#16213E"/>
</svg>
